<svg xmlns="http://www.w3.org/2000/svg">
    <path d="M22.5,6.297c-0.736,0.326-1.527,0.547-2.357,0.646c0.847-0.508,1.498-1.312,1.804-2.27
	c-0.793,0.47-1.671,0.812-2.606,0.996c-0.748-0.797-1.815-1.296-2.995-1.296c-2.266,0-4.103,1.837-4.103,4.103
	c0,0.322,0.036,0.635,0.106,0.935C8.94,9.24,5.916,7.607,3.892,5.124C3.539,5.73,3.337,6.435,3.337,7.187
	c0,1.424,0.724,2.679,1.825,3.415c-0.673-0.021-1.305-0.206-1.859-0.513c0,0.017,0,0.034,0,0.052c0,1.988,1.414,3.646,3.291,4.023
	c-0.344,0.094-0.707,0.144-1.081,0.144c-0.264,0-0.521-0.026-0.772-0.074c0.522,1.63,2.038,2.817,3.833,2.85
	c-1.404,1.101-3.174,1.757-5.096,1.757c-0.331,0-0.658-0.019-0.979-0.057c1.816,1.164,3.973,1.844,6.29,1.844
	c7.547,0,11.675-6.252,11.675-11.675c0-0.178-0.004-0.355-0.012-0.531C21.254,7.843,21.95,7.12,22.5,6.297z"></path>
</svg>